# xmcd
#
# Track frame offsets:
#	150
#	13666
#	26342
#	37300
#	52093
#	65296
#	77867
#	89580
#	105034
#	125568
#	136818
#	155072
#	170924
#	184189
#	202579
#	222222
#
# Disc length: 3144 seconds
#
# Revision: 1
# Processed by: cddbd v1.5.2PL0 Copyright (c) Steve Scherf et al.
# Submitted via: audiograbber 1.83.01
#
DISCID=dc0c4610
DTITLE=Lieper's Fork Bluegrass - The Rough Side Of the Mountain
DYEAR=2007
DGENRE=Bluegrass
TTITLE0=There's a Light at the River
TTITLE1=When I'm In the Lowest Valley
TTITLE2=Who Will Sing For Me
TTITLE3=I Saw the Light
TTITLE4=Farside Banks of Jordan
TTITLE5=Little Mountain Church House
TTITLE6=I'll Fly Away
TTITLE7=Gone Home
TTITLE8=The Fields Have Turned Brown
TTITLE9=Hallelujah I'm Ready To Go
TTITLE10=Rough Side of the Mountain
TTITLE11=Just As the Sun Went Down
TTITLE12=Working On the Road
TTITLE13=The Old Crossroads
TTITLE14=Rank Stranger
TTITLE15=Gloryland
EXTD=
EXTT0=
EXTT1=
EXTT2=
EXTT3=
EXTT4=
EXTT5=
EXTT6=
EXTT7=
EXTT8=
EXTT9=
EXTT10=
EXTT11=
EXTT12=
EXTT13=
EXTT14=
EXTT15=
PLAYORDER=
